<?xml version="1.0" encoding="UTF-8"?>
<svg width="1440px" height="1024px" viewBox="0 0 1440 1024" version="1.1" xmlns="http://www.w3.org/2000/svg" xmlns:xlink="http://www.w3.org/1999/xlink">
    <!-- Generator: Sketch 52.4 (67378) - http://www.bohemiancoding.com/sketch -->
    <title>Artboard</title>
    <desc>Created with Sketch.</desc>
    <defs>
        <rect id="path-1" x="205" y="106" width="375" height="812" rx="20"></rect>
        <filter x="-6.7%" y="-2.8%" width="113.3%" height="106.2%" filterUnits="objectBoundingBox" id="filter-2">
            <feOffset dx="0" dy="2" in="SourceAlpha" result="shadowOffsetOuter1"></feOffset>
            <feGaussianBlur stdDeviation="8" in="shadowOffsetOuter1" result="shadowBlurOuter1"></feGaussianBlur>
            <feColorMatrix values="0 0 0 0 0   0 0 0 0 0   0 0 0 0 0  0 0 0 0.1 0" type="matrix" in="shadowBlurOuter1"></feColorMatrix>
        </filter>
        <rect id="path-3" x="860" y="106" width="375" height="812" rx="20"></rect>
        <filter x="-6.7%" y="-2.8%" width="113.3%" height="106.2%" filterUnits="objectBoundingBox" id="filter-4">
            <feOffset dx="0" dy="2" in="SourceAlpha" result="shadowOffsetOuter1"></feOffset>
            <feGaussianBlur stdDeviation="8" in="shadowOffsetOuter1" result="shadowBlurOuter1"></feGaussianBlur>
            <feColorMatrix values="0 0 0 0 0   0 0 0 0 0   0 0 0 0 0  0 0 0 0.1 0" type="matrix" in="shadowBlurOuter1"></feColorMatrix>
        </filter>
    </defs>
    <g id="Artboard" stroke="none" stroke-width="1" fill="none" fill-rule="evenodd">
        <rect id="Rectangle" fill="#F9F9F9" x="0" y="0" width="1440" height="1024" rx="20"></rect>
        <path d="M760.666667,359.5 L522,359.5 C517.581722,359.5 514,355.918278 514,351.5 C514,347.081722 517.581722,343.5 522,343.5 L760.666667,343.5 L760.666667,314.510692 C760.666667,311.743363 762.91003,309.5 765.677359,309.5 C766.455244,309.5 767.222447,309.681112 767.918208,310.028993 L841.895727,347.017752 C844.370901,348.255339 845.374163,351.265127 844.136576,353.740301 C843.651723,354.710007 842.865433,355.496297 841.895727,355.98115 L767.918208,392.96991 C765.443034,394.207497 762.433247,393.204234 761.19566,390.72906 C760.847779,390.033298 760.666667,389.266096 760.666667,388.48821 L760.666667,359.5 Z" id="Path" fill="#F5A623" fill-rule="nonzero"></path>
        <path d="M838.666667,679.5 L600,679.5 C595.581722,679.5 592,675.918278 592,671.5 C592,667.081722 595.581722,663.5 600,663.5 L838.666667,663.5 L838.666667,634.510692 C838.666667,631.743363 840.91003,629.5 843.677359,629.5 C844.455244,629.5 845.222447,629.681112 845.918208,630.028993 L919.895727,667.017752 C922.370901,668.255339 923.374163,671.265127 922.136576,673.740301 C921.651723,674.710007 920.865433,675.496297 919.895727,675.98115 L845.918208,712.96991 C843.443034,714.207497 840.433247,713.204234 839.19566,710.72906 C838.847779,710.033298 838.666667,709.266096 838.666667,708.48821 L838.666667,679.5 Z" id="Path" fill="#7ED321" fill-rule="nonzero" transform="translate(757.333333, 671.500000) scale(-1, 1) translate(-757.333333, -671.500000) "></path>
        <g id="Rectangle">
            <use fill="black" fill-opacity="1" filter="url(#filter-2)" xlink:href="#path-1"></use>
            <use fill="#FFFFFF" fill-rule="evenodd" xlink:href="#path-1"></use>
        </g>
        <text id="Label" font-family="SFProText-Regular, SF Pro Text" font-size="38" font-weight="normal" letter-spacing="-0.916470587" fill="#007AFF">
            <tspan x="352.881769" y="854">Next</tspan>
        </text>
        <g id="Rectangle">
            <use fill="black" fill-opacity="1" filter="url(#filter-4)" xlink:href="#path-3"></use>
            <use fill="#FFFFFF" fill-rule="evenodd" xlink:href="#path-3"></use>
        </g>
        <text id="Label" font-family="SFProText-Regular, SF Pro Text" font-size="38" font-weight="normal" letter-spacing="-0.916470587" fill="#007AFF">
            <tspan x="1005.414" y="854">Back</tspan>
        </text>
        <text id="1" font-family="SFProText-Bold, SF Pro Text" font-size="82" font-weight="bold" letter-spacing="-1.96800005" fill="#4A90E2">
            <tspan x="372.443473" y="483">1</tspan>
        </text>
        <text id="2" font-family="SFProText-Bold, SF Pro Text" font-size="82" font-weight="bold" letter-spacing="-1.96800017" fill="#4A90E2">
            <tspan x="1022.09826" y="483">2</tspan>
        </text>
    </g>
</svg>